<svg xmlns="http://www.w3.org/2000/svg" xmlns:xlink="http://www.w3.org/1999/xlink" width="500" zoomAndPan="magnify" viewBox="0 0 375 149.999998" height="200" preserveAspectRatio="xMidYMid meet" version="1.0"><defs><g/></defs><g fill="#15b815" fill-opacity="1"><g transform="translate(13.660733, 129.980993)"><g><path d="M 87.484375 -99.25 C 88.898438 -99.25 89.609375 -98.539062 89.609375 -97.125 L 89.609375 -2.125 C 89.609375 -0.707031 88.898438 0 87.484375 0 L 70.046875 0 C 68.910156 0 68.0625 -0.472656 67.5 -1.421875 L 29.359375 -68.765625 L 29.359375 -2.125 C 29.359375 -0.707031 28.644531 0 27.21875 0 L 12.046875 0 C 10.628906 0 9.921875 -0.707031 9.921875 -2.125 L 9.921875 -97.125 C 9.921875 -98.539062 10.628906 -99.25 12.046875 -99.25 L 29.5 -99.25 C 30.625 -99.25 31.472656 -98.78125 32.046875 -97.84375 L 70.1875 -30.484375 L 70.1875 -97.125 C 70.1875 -98.539062 70.894531 -99.25 72.3125 -99.25 Z M 87.484375 -99.25 "/></g></g></g><g fill="#15b815" fill-opacity="1"><g transform="translate(102.708465, 129.980993)"><g><path d="M 76.421875 -103.515625 C 77.847656 -103.515625 78.5625 -102.804688 78.5625 -101.390625 L 78.5625 -2.125 C 78.5625 -0.707031 77.847656 0 76.421875 0 L 64.09375 0 C 62.863281 0 62.15625 -0.707031 61.96875 -2.125 L 61.109375 -8.9375 C 58.847656 -6 55.96875 -3.609375 52.46875 -1.765625 C 48.96875 0.078125 44.851562 1 40.125 1 C 33.601562 1 27.8125 -0.582031 22.75 -3.75 C 17.695312 -6.914062 13.703125 -11.191406 10.765625 -16.578125 C 7.835938 -21.972656 6.375 -27.976562 6.375 -34.59375 C 6.375 -41.40625 7.835938 -47.550781 10.765625 -53.03125 C 13.703125 -58.507812 17.695312 -62.851562 22.75 -66.0625 C 27.8125 -69.28125 33.601562 -70.890625 40.125 -70.890625 C 44.382812 -70.890625 48.144531 -70.085938 51.40625 -68.484375 C 54.664062 -66.878906 57.476562 -64.707031 59.84375 -61.96875 L 59.84375 -101.390625 C 59.84375 -102.804688 60.550781 -103.515625 61.96875 -103.515625 Z M 42.25 -16.015625 C 47.550781 -16.015625 51.832031 -17.8125 55.09375 -21.40625 C 58.351562 -25 59.984375 -29.441406 59.984375 -34.734375 C 59.984375 -38.234375 59.222656 -41.425781 57.703125 -44.3125 C 56.191406 -47.195312 54.113281 -49.507812 51.46875 -51.25 C 48.820312 -53 45.75 -53.875 42.25 -53.875 C 37.050781 -53.875 32.773438 -52.078125 29.421875 -48.484375 C 26.066406 -44.898438 24.390625 -40.316406 24.390625 -34.734375 C 24.390625 -29.347656 26.066406 -24.878906 29.421875 -21.328125 C 32.773438 -17.785156 37.050781 -16.015625 42.25 -16.015625 Z M 42.25 -16.015625 "/></g></g></g><g fill="#15b815" fill-opacity="1"><g transform="translate(179.278064, 129.980993)"><g><path d="M 74.4375 -36.578125 C 74.4375 -33.835938 74.148438 -31.757812 73.578125 -30.34375 C 73.015625 -28.925781 71.648438 -28.21875 69.484375 -28.21875 L 24.953125 -28.21875 C 25.992188 -23.769531 28.210938 -20.316406 31.609375 -17.859375 C 35.015625 -15.398438 39.414062 -14.171875 44.8125 -14.171875 C 50.101562 -14.171875 55.015625 -15.78125 59.546875 -19 C 60.773438 -19.757812 61.816406 -19.710938 62.671875 -18.859375 L 68.90625 -12.765625 C 69.945312 -11.816406 69.898438 -10.773438 68.765625 -9.640625 C 65.460938 -6.328125 61.585938 -3.722656 57.140625 -1.828125 C 52.703125 0.0546875 47.976562 1 42.96875 1 C 35.78125 1 29.421875 -0.609375 23.890625 -3.828125 C 18.359375 -7.046875 14.054688 -11.394531 10.984375 -16.875 C 7.910156 -22.351562 6.375 -28.40625 6.375 -35.03125 C 6.375 -41.738281 7.882812 -47.785156 10.90625 -53.171875 C 13.9375 -58.554688 18.097656 -62.851562 23.390625 -66.0625 C 28.691406 -69.28125 34.695312 -70.890625 41.40625 -70.890625 C 48.113281 -70.890625 53.945312 -69.304688 58.90625 -66.140625 C 63.875 -62.972656 67.703125 -58.789062 70.390625 -53.59375 C 73.085938 -48.394531 74.4375 -42.722656 74.4375 -36.578125 Z M 41.546875 -54.875 C 37.296875 -54.875 33.632812 -53.644531 30.5625 -51.1875 C 27.488281 -48.726562 25.523438 -45.132812 24.671875 -40.40625 L 57.859375 -40.40625 C 57.191406 -45.132812 55.34375 -48.726562 52.3125 -51.1875 C 49.289062 -53.644531 45.703125 -54.875 41.546875 -54.875 Z M 41.546875 -54.875 "/></g></g></g><g fill="#15b815" fill-opacity="1"><g transform="translate(249.608595, 129.980993)"><g><path d="M 76.421875 -69.484375 C 77.847656 -69.484375 78.5625 -68.773438 78.5625 -67.359375 L 78.5625 -2.125 C 78.5625 -0.707031 77.847656 0 76.421875 0 L 64.09375 0 C 62.863281 0 62.15625 -0.707031 61.96875 -2.125 L 61.109375 -8.9375 C 58.847656 -6 55.96875 -3.609375 52.46875 -1.765625 C 48.96875 0.078125 44.851562 1 40.125 1 C 33.601562 1 27.8125 -0.582031 22.75 -3.75 C 17.695312 -6.914062 13.703125 -11.191406 10.765625 -16.578125 C 7.835938 -21.972656 6.375 -27.976562 6.375 -34.59375 C 6.375 -41.40625 7.835938 -47.550781 10.765625 -53.03125 C 13.703125 -58.507812 17.695312 -62.851562 22.75 -66.0625 C 27.8125 -69.28125 33.601562 -70.890625 40.125 -70.890625 C 44.851562 -70.890625 48.96875 -69.921875 52.46875 -67.984375 C 55.96875 -66.046875 58.894531 -63.472656 61.25 -60.265625 L 61.96875 -67.359375 C 62.15625 -68.773438 62.863281 -69.484375 64.09375 -69.484375 Z M 42.25 -16.015625 C 47.550781 -16.015625 51.832031 -17.8125 55.09375 -21.40625 C 58.351562 -25 59.984375 -29.441406 59.984375 -34.734375 C 59.984375 -38.234375 59.222656 -41.425781 57.703125 -44.3125 C 56.191406 -47.195312 54.113281 -49.507812 51.46875 -51.25 C 48.820312 -53 45.75 -53.875 42.25 -53.875 C 37.050781 -53.875 32.773438 -52.078125 29.421875 -48.484375 C 26.066406 -44.898438 24.390625 -40.316406 24.390625 -34.734375 C 24.390625 -29.347656 26.066406 -24.878906 29.421875 -21.328125 C 32.773438 -17.785156 37.050781 -16.015625 42.25 -16.015625 Z M 42.25 -16.015625 "/></g></g></g><g fill="#15b815" fill-opacity="1"><g transform="translate(326.178194, 129.980993)"><g><path d="M 8.5 -101.390625 C 8.5 -102.804688 9.210938 -103.515625 10.640625 -103.515625 L 25.09375 -103.515625 C 26.507812 -103.515625 27.21875 -102.804688 27.21875 -101.390625 L 27.21875 -2.125 C 27.21875 -0.707031 26.507812 0 25.09375 0 L 10.640625 0 C 9.210938 0 8.5 -0.707031 8.5 -2.125 Z M 8.5 -101.390625 "/></g></g></g></svg>