<svg xmlns="http://www.w3.org/2000/svg" xmlns:xlink="http://www.w3.org/1999/xlink" width="500" zoomAndPan="magnify" viewBox="0 0 375 149.999998" height="200" preserveAspectRatio="xMidYMid meet" version="1.0"><defs><g/><clipPath id="ecabc9c970"><path d="M 8.441406 44.445312 L 97 44.445312 L 97 121.914062 L 8.441406 121.914062 Z M 8.441406 44.445312 " clip-rule="nonzero"/></clipPath><clipPath id="bd5d37b52e"><path d="M 12.90625 49.417969 L 48.246094 45 C 51.210938 44.632812 54.210938 44.632812 57.175781 45 L 92.515625 49.417969 C 95.066406 49.738281 96.980469 51.90625 96.980469 54.476562 L 96.980469 111.878906 C 96.980469 114.453125 95.066406 116.621094 92.515625 116.9375 L 57.175781 121.355469 C 54.210938 121.726562 51.210938 121.726562 48.246094 121.355469 L 12.90625 116.9375 C 10.355469 116.621094 8.441406 114.453125 8.441406 111.878906 L 8.441406 54.476562 C 8.441406 51.90625 10.355469 49.738281 12.90625 49.417969 Z M 12.90625 49.417969 " clip-rule="nonzero"/></clipPath></defs><g fill="#f8f8f8" fill-opacity="1"><g transform="translate(103.006914, 118.460024)"><g><path d="M 65.84375 -74.703125 C 66.914062 -74.703125 67.453125 -74.171875 67.453125 -73.109375 L 67.453125 -1.59375 C 67.453125 -0.53125 66.914062 0 65.84375 0 L 52.71875 0 C 51.863281 0 51.222656 -0.351562 50.796875 -1.0625 L 22.09375 -51.765625 L 22.09375 -1.59375 C 22.09375 -0.53125 21.554688 0 20.484375 0 L 9.078125 0 C 8.003906 0 7.46875 -0.53125 7.46875 -1.59375 L 7.46875 -73.109375 C 7.46875 -74.171875 8.003906 -74.703125 9.078125 -74.703125 L 22.203125 -74.703125 C 23.054688 -74.703125 23.695312 -74.347656 24.125 -73.640625 L 52.828125 -22.9375 L 52.828125 -73.109375 C 52.828125 -74.171875 53.359375 -74.703125 54.421875 -74.703125 Z M 65.84375 -74.703125 "/></g></g></g><g fill="#f8f8f8" fill-opacity="1"><g transform="translate(170.020196, 118.460024)"><g><path d="M 57.515625 -77.90625 C 58.585938 -77.90625 59.125 -77.367188 59.125 -76.296875 L 59.125 -1.59375 C 59.125 -0.53125 58.585938 0 57.515625 0 L 48.234375 0 C 47.304688 0 46.773438 -0.53125 46.640625 -1.59375 L 46 -6.71875 C 44.289062 -4.519531 42.117188 -2.722656 39.484375 -1.328125 C 36.847656 0.0546875 33.753906 0.75 30.203125 0.75 C 25.296875 0.75 20.9375 -0.441406 17.125 -2.828125 C 13.320312 -5.210938 10.316406 -8.429688 8.109375 -12.484375 C 5.898438 -16.535156 4.796875 -21.054688 4.796875 -26.046875 C 4.796875 -31.160156 5.898438 -35.78125 8.109375 -39.90625 C 10.316406 -44.039062 13.320312 -47.316406 17.125 -49.734375 C 20.9375 -52.148438 25.296875 -53.359375 30.203125 -53.359375 C 33.398438 -53.359375 36.226562 -52.753906 38.6875 -51.546875 C 41.144531 -50.335938 43.257812 -48.703125 45.03125 -46.640625 L 45.03125 -76.296875 C 45.03125 -77.367188 45.566406 -77.90625 46.640625 -77.90625 Z M 31.796875 -12.0625 C 35.785156 -12.0625 39.003906 -13.410156 41.453125 -16.109375 C 43.910156 -18.816406 45.140625 -22.160156 45.140625 -26.140625 C 45.140625 -28.773438 44.570312 -31.175781 43.4375 -33.34375 C 42.300781 -35.519531 40.734375 -37.265625 38.734375 -38.578125 C 36.742188 -39.890625 34.429688 -40.546875 31.796875 -40.546875 C 27.890625 -40.546875 24.671875 -39.191406 22.140625 -36.484375 C 19.617188 -33.785156 18.359375 -30.335938 18.359375 -26.140625 C 18.359375 -22.085938 19.617188 -18.726562 22.140625 -16.0625 C 24.671875 -13.394531 27.890625 -12.0625 31.796875 -12.0625 Z M 31.796875 -12.0625 "/></g></g></g><g fill="#f8f8f8" fill-opacity="1"><g transform="translate(227.643002, 118.460024)"><g><path d="M 56.03125 -27.53125 C 56.03125 -25.46875 55.816406 -23.898438 55.390625 -22.828125 C 54.960938 -21.765625 53.929688 -21.234375 52.296875 -21.234375 L 18.78125 -21.234375 C 19.5625 -17.890625 21.234375 -15.289062 23.796875 -13.4375 C 26.359375 -11.59375 29.664062 -10.671875 33.71875 -10.671875 C 37.707031 -10.671875 41.410156 -11.878906 44.828125 -14.296875 C 45.742188 -14.867188 46.523438 -14.832031 47.171875 -14.1875 L 51.859375 -9.609375 C 52.648438 -8.890625 52.617188 -8.101562 51.765625 -7.25 C 49.273438 -4.757812 46.351562 -2.800781 43 -1.375 C 39.65625 0.0390625 36.097656 0.75 32.328125 0.75 C 26.921875 0.75 22.132812 -0.457031 17.96875 -2.875 C 13.8125 -5.300781 10.578125 -8.578125 8.265625 -12.703125 C 5.953125 -16.828125 4.796875 -21.378906 4.796875 -26.359375 C 4.796875 -31.410156 5.929688 -35.960938 8.203125 -40.015625 C 10.484375 -44.078125 13.613281 -47.316406 17.59375 -49.734375 C 21.582031 -52.148438 26.101562 -53.359375 31.15625 -53.359375 C 36.207031 -53.359375 40.597656 -52.164062 44.328125 -49.78125 C 48.066406 -47.394531 50.953125 -44.242188 52.984375 -40.328125 C 55.015625 -36.421875 56.03125 -32.15625 56.03125 -27.53125 Z M 31.265625 -41.296875 C 28.066406 -41.296875 25.3125 -40.367188 23 -38.515625 C 20.6875 -36.671875 19.207031 -33.972656 18.5625 -30.421875 L 43.546875 -30.421875 C 43.046875 -33.972656 41.65625 -36.671875 39.375 -38.515625 C 37.101562 -40.367188 34.398438 -41.296875 31.265625 -41.296875 Z M 31.265625 -41.296875 "/></g></g></g><g fill="#f8f8f8" fill-opacity="1"><g transform="translate(280.570569, 118.460024)"><g><path d="M 57.515625 -52.296875 C 58.585938 -52.296875 59.125 -51.757812 59.125 -50.6875 L 59.125 -1.59375 C 59.125 -0.53125 58.585938 0 57.515625 0 L 48.234375 0 C 47.304688 0 46.773438 -0.53125 46.640625 -1.59375 L 46 -6.71875 C 44.289062 -4.519531 42.117188 -2.722656 39.484375 -1.328125 C 36.847656 0.0546875 33.753906 0.75 30.203125 0.75 C 25.296875 0.75 20.9375 -0.441406 17.125 -2.828125 C 13.320312 -5.210938 10.316406 -8.429688 8.109375 -12.484375 C 5.898438 -16.535156 4.796875 -21.054688 4.796875 -26.046875 C 4.796875 -31.160156 5.898438 -35.78125 8.109375 -39.90625 C 10.316406 -44.039062 13.320312 -47.316406 17.125 -49.734375 C 20.9375 -52.148438 25.296875 -53.359375 30.203125 -53.359375 C 33.753906 -53.359375 36.847656 -52.628906 39.484375 -51.171875 C 42.117188 -49.710938 44.328125 -47.773438 46.109375 -45.359375 L 46.640625 -50.6875 C 46.773438 -51.757812 47.304688 -52.296875 48.234375 -52.296875 Z M 31.796875 -12.0625 C 35.785156 -12.0625 39.003906 -13.410156 41.453125 -16.109375 C 43.910156 -18.816406 45.140625 -22.160156 45.140625 -26.140625 C 45.140625 -28.773438 44.570312 -31.175781 43.4375 -33.34375 C 42.300781 -35.519531 40.734375 -37.265625 38.734375 -38.578125 C 36.742188 -39.890625 34.429688 -40.546875 31.796875 -40.546875 C 27.890625 -40.546875 24.671875 -39.191406 22.140625 -36.484375 C 19.617188 -33.785156 18.359375 -30.335938 18.359375 -26.140625 C 18.359375 -22.085938 19.617188 -18.726562 22.140625 -16.0625 C 24.671875 -13.394531 27.890625 -12.0625 31.796875 -12.0625 Z M 31.796875 -12.0625 "/></g></g></g><g fill="#f8f8f8" fill-opacity="1"><g transform="translate(338.193374, 118.460024)"><g><path d="M 6.40625 -76.296875 C 6.40625 -77.367188 6.9375 -77.90625 8 -77.90625 L 18.890625 -77.90625 C 19.953125 -77.90625 20.484375 -77.367188 20.484375 -76.296875 L 20.484375 -1.59375 C 20.484375 -0.53125 19.953125 0 18.890625 0 L 8 0 C 6.9375 0 6.40625 -0.53125 6.40625 -1.59375 Z M 6.40625 -76.296875 "/></g></g></g><g clip-path="url(#ecabc9c970)"><g clip-path="url(#bd5d37b52e)"><path fill="#545454" d="M 8.441406 44.445312 L 97.109375 44.445312 L 97.109375 121.914062 L 8.441406 121.914062 Z M 8.441406 44.445312 " fill-opacity="1" fill-rule="nonzero"/></g></g><g fill="#ff8c00" fill-opacity="1"><g transform="translate(27.261325, 104.461205)"><g><path d="M 14.921875 0 L 6.03125 0 L 6.03125 -46.40625 L 16.53125 -46.40625 L 35.171875 -16.5 L 35.984375 -16.625 L 35.984375 -46.40625 L 44.8125 -46.40625 L 44.8125 0 L 35.421875 0 L 15.703125 -31.921875 L 14.921875 -31.796875 Z M 14.921875 0 "/></g></g></g><path stroke-linecap="round" transform="matrix(0.75, 0.000000000000001088, -0.000000000000001088, 0.75, 33.192943, 102.273723)" fill="none" stroke-linejoin="miter" d="M 4.997951 4.999619 L 34.185453 4.999619 " stroke="#ff8c00" stroke-width="10" stroke-opacity="1" stroke-miterlimit="4"/></svg>