<svg xmlns="http://www.w3.org/2000/svg" xmlns:xlink="http://www.w3.org/1999/xlink" width="500" zoomAndPan="magnify" viewBox="0 0 375 149.999998" height="200" preserveAspectRatio="xMidYMid meet" version="1.0"><defs><g/><clipPath id="dcd1821fa3"><path d="M 4.605469 34.417969 L 76.125 34.417969 L 76.125 107.484375 L 4.605469 107.484375 Z M 4.605469 34.417969 " clip-rule="nonzero"/></clipPath></defs><g fill="#15b815" fill-opacity="1"><g transform="translate(138.996982, 103.317065)"><g><path d="M 59.546875 -67.5625 C 60.515625 -67.5625 61 -67.078125 61 -66.109375 L 61 -1.453125 C 61 -0.484375 60.515625 0 59.546875 0 L 47.671875 0 C 46.898438 0 46.320312 -0.320312 45.9375 -0.96875 L 19.984375 -46.8125 L 19.984375 -1.453125 C 19.984375 -0.484375 19.5 0 18.53125 0 L 8.203125 0 C 7.234375 0 6.75 -0.484375 6.75 -1.453125 L 6.75 -66.109375 C 6.75 -67.078125 7.234375 -67.5625 8.203125 -67.5625 L 20.078125 -67.5625 C 20.847656 -67.5625 21.425781 -67.238281 21.8125 -66.59375 L 47.78125 -20.75 L 47.78125 -66.109375 C 47.78125 -67.078125 48.257812 -67.5625 49.21875 -67.5625 Z M 59.546875 -67.5625 "/></g></g></g><g fill="#15b815" fill-opacity="1"><g transform="translate(199.608317, 103.317065)"><g><path d="M 52.015625 -70.453125 C 52.984375 -70.453125 53.46875 -69.972656 53.46875 -69.015625 L 53.46875 -1.453125 C 53.46875 -0.484375 52.984375 0 52.015625 0 L 43.625 0 C 42.789062 0 42.304688 -0.484375 42.171875 -1.453125 L 41.59375 -6.078125 C 40.050781 -4.085938 38.085938 -2.460938 35.703125 -1.203125 C 33.328125 0.046875 30.53125 0.671875 27.3125 0.671875 C 22.875 0.671875 18.929688 -0.40625 15.484375 -2.5625 C 12.046875 -4.71875 9.328125 -7.628906 7.328125 -11.296875 C 5.335938 -14.960938 4.34375 -19.046875 4.34375 -23.546875 C 4.34375 -28.179688 5.335938 -32.363281 7.328125 -36.09375 C 9.328125 -39.820312 12.046875 -42.78125 15.484375 -44.96875 C 18.929688 -47.164062 22.875 -48.265625 27.3125 -48.265625 C 30.207031 -48.265625 32.765625 -47.710938 34.984375 -46.609375 C 37.203125 -45.515625 39.117188 -44.035156 40.734375 -42.171875 L 40.734375 -69.015625 C 40.734375 -69.972656 41.210938 -70.453125 42.171875 -70.453125 Z M 28.765625 -10.90625 C 32.367188 -10.90625 35.28125 -12.125 37.5 -14.5625 C 39.71875 -17.007812 40.828125 -20.035156 40.828125 -23.640625 C 40.828125 -26.023438 40.3125 -28.195312 39.28125 -30.15625 C 38.25 -32.125 36.832031 -33.703125 35.03125 -34.890625 C 33.226562 -36.078125 31.140625 -36.671875 28.765625 -36.671875 C 25.222656 -36.671875 22.304688 -35.445312 20.015625 -33 C 17.734375 -30.5625 16.59375 -27.441406 16.59375 -23.640625 C 16.59375 -19.972656 17.734375 -16.929688 20.015625 -14.515625 C 22.304688 -12.109375 25.222656 -10.90625 28.765625 -10.90625 Z M 28.765625 -10.90625 "/></g></g></g><g fill="#15b815" fill-opacity="1"><g transform="translate(251.726281, 103.317065)"><g><path d="M 50.671875 -24.90625 C 50.671875 -23.039062 50.476562 -21.625 50.09375 -20.65625 C 49.707031 -19.6875 48.773438 -19.203125 47.296875 -19.203125 L 16.984375 -19.203125 C 17.691406 -16.179688 19.203125 -13.832031 21.515625 -12.15625 C 23.835938 -10.488281 26.832031 -9.65625 30.5 -9.65625 C 34.101562 -9.65625 37.445312 -10.75 40.53125 -12.9375 C 41.375 -13.445312 42.082031 -13.414062 42.65625 -12.84375 L 46.90625 -8.6875 C 47.613281 -8.039062 47.582031 -7.332031 46.8125 -6.5625 C 44.5625 -4.3125 41.921875 -2.539062 38.890625 -1.25 C 35.867188 0.03125 32.65625 0.671875 29.25 0.671875 C 24.351562 0.671875 20.019531 -0.421875 16.25 -2.609375 C 12.488281 -4.796875 9.5625 -7.753906 7.46875 -11.484375 C 5.382812 -15.210938 4.34375 -19.332031 4.34375 -23.84375 C 4.34375 -28.40625 5.367188 -32.519531 7.421875 -36.1875 C 9.484375 -39.851562 12.316406 -42.78125 15.921875 -44.96875 C 19.523438 -47.164062 23.613281 -48.265625 28.1875 -48.265625 C 32.75 -48.265625 36.71875 -47.1875 40.09375 -45.03125 C 43.476562 -42.875 46.085938 -40.023438 47.921875 -36.484375 C 49.753906 -32.941406 50.671875 -29.082031 50.671875 -24.90625 Z M 28.28125 -37.34375 C 25.382812 -37.34375 22.890625 -36.503906 20.796875 -34.828125 C 18.703125 -33.160156 17.367188 -30.71875 16.796875 -27.5 L 39.375 -27.5 C 38.925781 -30.71875 37.671875 -33.160156 35.609375 -34.828125 C 33.554688 -36.503906 31.113281 -37.34375 28.28125 -37.34375 Z M 28.28125 -37.34375 "/></g></g></g><g fill="#15b815" fill-opacity="1"><g transform="translate(299.597566, 103.317065)"><g><path d="M 52.015625 -47.296875 C 52.984375 -47.296875 53.46875 -46.8125 53.46875 -45.84375 L 53.46875 -1.453125 C 53.46875 -0.484375 52.984375 0 52.015625 0 L 43.625 0 C 42.789062 0 42.304688 -0.484375 42.171875 -1.453125 L 41.59375 -6.078125 C 40.050781 -4.085938 38.085938 -2.460938 35.703125 -1.203125 C 33.328125 0.046875 30.53125 0.671875 27.3125 0.671875 C 22.875 0.671875 18.929688 -0.40625 15.484375 -2.5625 C 12.046875 -4.71875 9.328125 -7.628906 7.328125 -11.296875 C 5.335938 -14.960938 4.34375 -19.046875 4.34375 -23.546875 C 4.34375 -28.179688 5.335938 -32.363281 7.328125 -36.09375 C 9.328125 -39.820312 12.046875 -42.78125 15.484375 -44.96875 C 18.929688 -47.164062 22.875 -48.265625 27.3125 -48.265625 C 30.53125 -48.265625 33.328125 -47.601562 35.703125 -46.28125 C 38.085938 -44.957031 40.082031 -43.203125 41.6875 -41.015625 L 42.171875 -45.84375 C 42.304688 -46.8125 42.789062 -47.296875 43.625 -47.296875 Z M 28.765625 -10.90625 C 32.367188 -10.90625 35.28125 -12.125 37.5 -14.5625 C 39.71875 -17.007812 40.828125 -20.035156 40.828125 -23.640625 C 40.828125 -26.023438 40.3125 -28.195312 39.28125 -30.15625 C 38.25 -32.125 36.832031 -33.703125 35.03125 -34.890625 C 33.226562 -36.078125 31.140625 -36.671875 28.765625 -36.671875 C 25.222656 -36.671875 22.304688 -35.445312 20.015625 -33 C 17.734375 -30.5625 16.59375 -27.441406 16.59375 -23.640625 C 16.59375 -19.972656 17.734375 -16.929688 20.015625 -14.515625 C 22.304688 -12.109375 25.222656 -10.90625 28.765625 -10.90625 Z M 28.765625 -10.90625 "/></g></g></g><g fill="#15b815" fill-opacity="1"><g transform="translate(351.715536, 103.317065)"><g><path d="M 5.796875 -69.015625 C 5.796875 -69.972656 6.273438 -70.453125 7.234375 -70.453125 L 17.078125 -70.453125 C 18.046875 -70.453125 18.53125 -69.972656 18.53125 -69.015625 L 18.53125 -1.453125 C 18.53125 -0.484375 18.046875 0 17.078125 0 L 7.234375 0 C 6.273438 0 5.796875 -0.484375 5.796875 -1.453125 Z M 5.796875 -69.015625 "/></g></g></g><g clip-path="url(#dcd1821fa3)"><path fill="#ffffff" d="M 4.605469 34.417969 L 76.125 34.417969 L 76.125 107.617188 L 4.605469 107.617188 Z M 4.605469 34.417969 " fill-opacity="1" fill-rule="nonzero"/></g><g fill="#0c0c0c" fill-opacity="1"><g transform="translate(-15.772545, 108.174576)"><g><path d="M 60.546875 -31.640625 L 60.546875 -75.0625 L 76.171875 -75.0625 L 76.171875 1.3125 L 22.765625 -43.125 L 22.765625 0 L 7.15625 0 L 7.15625 -76.46875 Z M 60.546875 -31.640625 "/></g></g></g><g fill="#ffffff" fill-opacity="1"><g transform="translate(53.437178, 106.890051)"><g><path d="M 7 -73.453125 L 36.78125 -73.453125 C 42.101562 -73.453125 47.078125 -72.53125 51.703125 -70.6875 C 56.335938 -68.851562 60.414062 -66.273438 63.9375 -62.953125 C 67.457031 -59.628906 70.21875 -55.75 72.21875 -51.3125 C 74.226562 -46.875 75.234375 -42.03125 75.234375 -36.78125 C 75.234375 -31.519531 74.226562 -26.65625 72.21875 -22.1875 C 70.21875 -17.71875 67.457031 -13.820312 63.9375 -10.5 C 60.414062 -7.175781 56.335938 -4.59375 51.703125 -2.75 C 47.078125 -0.914062 42.132812 0 36.875 0 L 7 0 Z M 22.28125 -13.796875 L 36.875 -13.796875 C 41.144531 -13.796875 44.988281 -14.796875 48.40625 -16.796875 C 51.820312 -18.804688 54.53125 -21.535156 56.53125 -24.984375 C 58.539062 -28.441406 59.546875 -32.375 59.546875 -36.78125 C 59.546875 -41.25 58.539062 -45.191406 56.53125 -48.609375 C 54.53125 -52.023438 51.804688 -54.71875 48.359375 -56.6875 C 44.910156 -58.664062 41.050781 -59.65625 36.78125 -59.65625 L 22.28125 -59.65625 Z M 22.28125 -13.796875 "/></g></g></g></svg>