<svg xmlns="http://www.w3.org/2000/svg" xmlns:xlink="http://www.w3.org/1999/xlink" width="500" zoomAndPan="magnify" viewBox="0 0 375 149.999998" height="200" preserveAspectRatio="xMidYMid meet" version="1.0"><defs><g/><clipPath id="c0a6bc7f5b"><path d="M 11.355469 34.417969 L 79.324219 34.417969 L 79.324219 106.417969 L 11.355469 106.417969 Z M 11.355469 34.417969 " clip-rule="nonzero"/></clipPath></defs><g fill="#0c0c0c" fill-opacity="1"><g transform="translate(145.146791, 102.793243)"><g><path d="M 56.46875 -64.0625 C 57.382812 -64.0625 57.84375 -63.601562 57.84375 -62.6875 L 57.84375 -1.375 C 57.84375 -0.457031 57.382812 0 56.46875 0 L 45.203125 0 C 44.472656 0 43.925781 -0.304688 43.5625 -0.921875 L 18.9375 -44.390625 L 18.9375 -1.375 C 18.9375 -0.457031 18.484375 0 17.578125 0 L 7.78125 0 C 6.863281 0 6.40625 -0.457031 6.40625 -1.375 L 6.40625 -62.6875 C 6.40625 -63.601562 6.863281 -64.0625 7.78125 -64.0625 L 19.03125 -64.0625 C 19.769531 -64.0625 20.320312 -63.753906 20.6875 -63.140625 L 45.296875 -19.671875 L 45.296875 -62.6875 C 45.296875 -63.601562 45.753906 -64.0625 46.671875 -64.0625 Z M 56.46875 -64.0625 "/></g></g></g><g fill="#0c0c0c" fill-opacity="1"><g transform="translate(202.615395, 102.793243)"><g><path d="M 49.328125 -66.8125 C 50.242188 -66.8125 50.703125 -66.351562 50.703125 -65.4375 L 50.703125 -1.375 C 50.703125 -0.457031 50.242188 0 49.328125 0 L 41.359375 0 C 40.566406 0 40.113281 -0.457031 40 -1.375 L 39.4375 -5.765625 C 37.976562 -3.867188 36.117188 -2.328125 33.859375 -1.140625 C 31.597656 0.046875 28.945312 0.640625 25.90625 0.640625 C 21.6875 0.640625 17.945312 -0.378906 14.6875 -2.421875 C 11.425781 -4.460938 8.847656 -7.222656 6.953125 -10.703125 C 5.066406 -14.179688 4.125 -18.054688 4.125 -22.328125 C 4.125 -26.722656 5.066406 -30.6875 6.953125 -34.21875 C 8.847656 -37.757812 11.425781 -40.566406 14.6875 -42.640625 C 17.945312 -44.710938 21.6875 -45.75 25.90625 -45.75 C 28.644531 -45.75 31.066406 -45.226562 33.171875 -44.1875 C 35.273438 -43.15625 37.09375 -41.757812 38.625 -40 L 38.625 -65.4375 C 38.625 -66.351562 39.082031 -66.8125 40 -66.8125 Z M 27.265625 -10.34375 C 30.679688 -10.34375 33.441406 -11.5 35.546875 -13.8125 C 37.660156 -16.132812 38.71875 -19.003906 38.71875 -22.421875 C 38.71875 -24.679688 38.226562 -26.738281 37.25 -28.59375 C 36.269531 -30.457031 34.925781 -31.953125 33.21875 -33.078125 C 31.507812 -34.210938 29.523438 -34.78125 27.265625 -34.78125 C 23.910156 -34.78125 21.148438 -33.617188 18.984375 -31.296875 C 16.816406 -28.984375 15.734375 -26.023438 15.734375 -22.421875 C 15.734375 -18.941406 16.816406 -16.054688 18.984375 -13.765625 C 21.148438 -11.484375 23.910156 -10.34375 27.265625 -10.34375 Z M 27.265625 -10.34375 "/></g></g></g><g fill="#0c0c0c" fill-opacity="1"><g transform="translate(252.030963, 102.793243)"><g><path d="M 48.046875 -23.609375 C 48.046875 -21.835938 47.863281 -20.492188 47.5 -19.578125 C 47.132812 -18.671875 46.25 -18.21875 44.84375 -18.21875 L 16.109375 -18.21875 C 16.773438 -15.34375 18.207031 -13.113281 20.40625 -11.53125 C 22.601562 -9.945312 25.441406 -9.15625 28.921875 -9.15625 C 32.335938 -9.15625 35.507812 -10.191406 38.4375 -12.265625 C 39.226562 -12.753906 39.898438 -12.722656 40.453125 -12.171875 L 44.46875 -8.234375 C 45.144531 -7.628906 45.117188 -6.957031 44.390625 -6.21875 C 42.253906 -4.082031 39.75 -2.40625 36.875 -1.1875 C 34.007812 0.03125 30.960938 0.640625 27.734375 0.640625 C 23.097656 0.640625 18.992188 -0.394531 15.421875 -2.46875 C 11.847656 -4.539062 9.070312 -7.347656 7.09375 -10.890625 C 5.113281 -14.429688 4.125 -18.335938 4.125 -22.609375 C 4.125 -26.941406 5.097656 -30.84375 7.046875 -34.3125 C 8.992188 -37.789062 11.675781 -40.566406 15.09375 -42.640625 C 18.507812 -44.710938 22.382812 -45.75 26.71875 -45.75 C 31.050781 -45.75 34.816406 -44.726562 38.015625 -42.6875 C 41.222656 -40.644531 43.695312 -37.945312 45.4375 -34.59375 C 47.175781 -31.238281 48.046875 -27.578125 48.046875 -23.609375 Z M 26.8125 -35.421875 C 24.070312 -35.421875 21.707031 -34.625 19.71875 -33.03125 C 17.738281 -31.445312 16.472656 -29.128906 15.921875 -26.078125 L 37.34375 -26.078125 C 36.914062 -29.128906 35.722656 -31.445312 33.765625 -33.03125 C 31.816406 -34.625 29.5 -35.421875 26.8125 -35.421875 Z M 26.8125 -35.421875 "/></g></g></g><g fill="#0c0c0c" fill-opacity="1"><g transform="translate(297.420014, 102.793243)"><g><path d="M 49.328125 -44.84375 C 50.242188 -44.84375 50.703125 -44.382812 50.703125 -43.46875 L 50.703125 -1.375 C 50.703125 -0.457031 50.242188 0 49.328125 0 L 41.359375 0 C 40.566406 0 40.113281 -0.457031 40 -1.375 L 39.4375 -5.765625 C 37.976562 -3.867188 36.117188 -2.328125 33.859375 -1.140625 C 31.597656 0.046875 28.945312 0.640625 25.90625 0.640625 C 21.6875 0.640625 17.945312 -0.378906 14.6875 -2.421875 C 11.425781 -4.460938 8.847656 -7.222656 6.953125 -10.703125 C 5.066406 -14.179688 4.125 -18.054688 4.125 -22.328125 C 4.125 -26.722656 5.066406 -30.6875 6.953125 -34.21875 C 8.847656 -37.757812 11.425781 -40.566406 14.6875 -42.640625 C 17.945312 -44.710938 21.6875 -45.75 25.90625 -45.75 C 28.945312 -45.75 31.597656 -45.125 33.859375 -43.875 C 36.117188 -42.625 38.007812 -40.960938 39.53125 -38.890625 L 40 -43.46875 C 40.113281 -44.382812 40.566406 -44.84375 41.359375 -44.84375 Z M 27.265625 -10.34375 C 30.679688 -10.34375 33.441406 -11.5 35.546875 -13.8125 C 37.660156 -16.132812 38.71875 -19.003906 38.71875 -22.421875 C 38.71875 -24.679688 38.226562 -26.738281 37.25 -28.59375 C 36.269531 -30.457031 34.925781 -31.953125 33.21875 -33.078125 C 31.507812 -34.210938 29.523438 -34.78125 27.265625 -34.78125 C 23.910156 -34.78125 21.148438 -33.617188 18.984375 -31.296875 C 16.816406 -28.984375 15.734375 -26.023438 15.734375 -22.421875 C 15.734375 -18.941406 16.816406 -16.054688 18.984375 -13.765625 C 21.148438 -11.484375 23.910156 -10.34375 27.265625 -10.34375 Z M 27.265625 -10.34375 "/></g></g></g><g fill="#0c0c0c" fill-opacity="1"><g transform="translate(346.835577, 102.793243)"><g><path d="M 5.484375 -65.4375 C 5.484375 -66.351562 5.941406 -66.8125 6.859375 -66.8125 L 16.203125 -66.8125 C 17.117188 -66.8125 17.578125 -66.351562 17.578125 -65.4375 L 17.578125 -1.375 C 17.578125 -0.457031 17.117188 0 16.203125 0 L 6.859375 0 C 5.941406 0 5.484375 -0.457031 5.484375 -1.375 Z M 5.484375 -65.4375 "/></g></g></g><g clip-path="url(#c0a6bc7f5b)"><path fill="#0c0c0c" d="M 11.355469 34.417969 L 79.324219 34.417969 L 79.324219 106.367188 L 11.355469 106.367188 Z M 11.355469 34.417969 " fill-opacity="1" fill-rule="nonzero"/></g><g fill="#f8f8f8" fill-opacity="1"><g transform="translate(0.91812, 106.7435)"><g><path d="M 58.75 -30.6875 L 58.75 -72.828125 L 73.90625 -72.828125 L 73.90625 1.265625 L 22.09375 -41.84375 L 22.09375 0 L 6.9375 0 L 6.9375 -74.1875 Z M 58.75 -30.6875 "/></g></g></g><g fill="#0c0c0c" fill-opacity="1"><g transform="translate(55.726185, 105.359)"><g><path d="M 6.859375 -71.96875 L 36.03125 -71.96875 C 41.25 -71.96875 46.125 -71.0625 50.65625 -69.25 C 55.195312 -67.445312 59.191406 -64.921875 62.640625 -61.671875 C 66.085938 -58.421875 68.789062 -54.617188 70.75 -50.265625 C 72.71875 -45.921875 73.703125 -41.175781 73.703125 -36.03125 C 73.703125 -30.875 72.71875 -26.109375 70.75 -21.734375 C 68.789062 -17.359375 66.085938 -13.539062 62.640625 -10.28125 C 59.191406 -7.03125 55.195312 -4.503906 50.65625 -2.703125 C 46.125 -0.898438 41.28125 0 36.125 0 L 6.859375 0 Z M 21.828125 -13.515625 L 36.125 -13.515625 C 40.3125 -13.515625 44.078125 -14.5 47.421875 -16.46875 C 50.773438 -18.4375 53.429688 -21.109375 55.390625 -24.484375 C 57.359375 -27.867188 58.34375 -31.71875 58.34375 -36.03125 C 58.34375 -40.40625 57.359375 -44.265625 55.390625 -47.609375 C 53.429688 -50.960938 50.757812 -53.601562 47.375 -55.53125 C 44 -57.46875 40.21875 -58.4375 36.03125 -58.4375 L 21.828125 -58.4375 Z M 21.828125 -13.515625 "/></g></g></g></svg>