<svg xmlns="http://www.w3.org/2000/svg" xmlns:xlink="http://www.w3.org/1999/xlink" width="500" zoomAndPan="magnify" viewBox="0 0 375 149.999998" height="200" preserveAspectRatio="xMidYMid meet" version="1.0"><defs><g/><clipPath id="63014f70a1"><path d="M 19.621094 29.863281 L 136.632812 29.863281 L 136.632812 129.46875 L 19.621094 129.46875 Z M 19.621094 29.863281 " clip-rule="nonzero"/></clipPath></defs><g fill="#15b815" fill-opacity="1"><g transform="translate(138.258841, 127.780375)"><g><path d="M 65.65625 -88.921875 C 66.875 -88.921875 67.484375 -88.3125 67.484375 -87.09375 L 67.484375 -1.828125 C 67.484375 -0.609375 66.875 0 65.65625 0 L 55.0625 0 C 54 0 53.390625 -0.609375 53.234375 -1.828125 L 52.5 -7.671875 C 50.550781 -5.148438 48.070312 -3.097656 45.0625 -1.515625 C 42.0625 0.0664062 38.53125 0.859375 34.46875 0.859375 C 28.863281 0.859375 23.890625 -0.5 19.546875 -3.21875 C 15.203125 -5.945312 11.769531 -9.625 9.25 -14.25 C 6.738281 -18.882812 5.484375 -24.039062 5.484375 -29.71875 C 5.484375 -35.570312 6.738281 -40.851562 9.25 -45.5625 C 11.769531 -50.269531 15.203125 -54.003906 19.546875 -56.765625 C 23.890625 -59.523438 28.863281 -60.90625 34.46875 -60.90625 C 38.125 -60.90625 41.351562 -60.210938 44.15625 -58.828125 C 46.957031 -57.453125 49.375 -55.585938 51.40625 -53.234375 L 51.40625 -87.09375 C 51.40625 -88.3125 52.015625 -88.921875 53.234375 -88.921875 Z M 36.296875 -13.765625 C 40.847656 -13.765625 44.523438 -15.304688 47.328125 -18.390625 C 50.128906 -21.472656 51.53125 -25.289062 51.53125 -29.84375 C 51.53125 -32.84375 50.878906 -35.582031 49.578125 -38.0625 C 48.273438 -40.539062 46.488281 -42.53125 44.21875 -44.03125 C 41.945312 -45.53125 39.304688 -46.28125 36.296875 -46.28125 C 31.828125 -46.28125 28.148438 -44.738281 25.265625 -41.65625 C 22.390625 -38.570312 20.953125 -34.632812 20.953125 -29.84375 C 20.953125 -25.21875 22.390625 -21.378906 25.265625 -18.328125 C 28.148438 -15.285156 31.828125 -13.765625 36.296875 -13.765625 Z M 36.296875 -13.765625 "/></g></g></g><g fill="#15b815" fill-opacity="1"><g transform="translate(204.032805, 127.780375)"><g><path d="M 63.953125 -31.421875 C 63.953125 -29.066406 63.707031 -27.28125 63.21875 -26.0625 C 62.726562 -24.84375 61.550781 -24.234375 59.6875 -24.234375 L 21.4375 -24.234375 C 22.332031 -20.421875 24.238281 -17.457031 27.15625 -15.34375 C 30.082031 -13.238281 33.863281 -12.1875 38.5 -12.1875 C 43.039062 -12.1875 47.257812 -13.566406 51.15625 -16.328125 C 52.21875 -16.972656 53.113281 -16.929688 53.84375 -16.203125 L 59.203125 -10.96875 C 60.097656 -10.15625 60.054688 -9.257812 59.078125 -8.28125 C 56.234375 -5.4375 52.898438 -3.203125 49.078125 -1.578125 C 45.265625 0.046875 41.207031 0.859375 36.90625 0.859375 C 30.738281 0.859375 25.28125 -0.519531 20.53125 -3.28125 C 15.78125 -6.050781 12.082031 -9.789062 9.4375 -14.5 C 6.800781 -19.207031 5.484375 -24.40625 5.484375 -30.09375 C 5.484375 -35.851562 6.78125 -41.046875 9.375 -45.671875 C 11.976562 -50.304688 15.550781 -54.003906 20.09375 -56.765625 C 24.644531 -59.523438 29.800781 -60.90625 35.5625 -60.90625 C 41.332031 -60.90625 46.347656 -59.546875 50.609375 -56.828125 C 54.878906 -54.109375 58.171875 -50.515625 60.484375 -46.046875 C 62.796875 -41.578125 63.953125 -36.703125 63.953125 -31.421875 Z M 35.6875 -47.140625 C 32.03125 -47.140625 28.882812 -46.082031 26.25 -43.96875 C 23.613281 -41.863281 21.929688 -38.78125 21.203125 -34.71875 L 49.703125 -34.71875 C 49.128906 -38.78125 47.539062 -41.863281 44.9375 -43.96875 C 42.34375 -46.082031 39.257812 -47.140625 35.6875 -47.140625 Z M 35.6875 -47.140625 "/></g></g></g><g fill="#15b815" fill-opacity="1"><g transform="translate(264.447364, 127.780375)"><g><path d="M 65.65625 -59.6875 C 66.875 -59.6875 67.484375 -59.078125 67.484375 -57.859375 L 67.484375 -1.828125 C 67.484375 -0.609375 66.875 0 65.65625 0 L 55.0625 0 C 54 0 53.390625 -0.609375 53.234375 -1.828125 L 52.5 -7.671875 C 50.550781 -5.148438 48.070312 -3.097656 45.0625 -1.515625 C 42.0625 0.0664062 38.53125 0.859375 34.46875 0.859375 C 28.863281 0.859375 23.890625 -0.5 19.546875 -3.21875 C 15.203125 -5.945312 11.769531 -9.625 9.25 -14.25 C 6.738281 -18.882812 5.484375 -24.039062 5.484375 -29.71875 C 5.484375 -35.570312 6.738281 -40.851562 9.25 -45.5625 C 11.769531 -50.269531 15.203125 -54.003906 19.546875 -56.765625 C 23.890625 -59.523438 28.863281 -60.90625 34.46875 -60.90625 C 38.53125 -60.90625 42.0625 -60.070312 45.0625 -58.40625 C 48.070312 -56.738281 50.59375 -54.523438 52.625 -51.765625 L 53.234375 -57.859375 C 53.390625 -59.078125 54 -59.6875 55.0625 -59.6875 Z M 36.296875 -13.765625 C 40.847656 -13.765625 44.523438 -15.304688 47.328125 -18.390625 C 50.128906 -21.472656 51.53125 -25.289062 51.53125 -29.84375 C 51.53125 -32.84375 50.878906 -35.582031 49.578125 -38.0625 C 48.273438 -40.539062 46.488281 -42.53125 44.21875 -44.03125 C 41.945312 -45.53125 39.304688 -46.28125 36.296875 -46.28125 C 31.828125 -46.28125 28.148438 -44.738281 25.265625 -41.65625 C 22.390625 -38.570312 20.953125 -34.632812 20.953125 -29.84375 C 20.953125 -25.21875 22.390625 -21.378906 25.265625 -18.328125 C 28.148438 -15.285156 31.828125 -13.765625 36.296875 -13.765625 Z M 36.296875 -13.765625 "/></g></g></g><g fill="#15b815" fill-opacity="1"><g transform="translate(330.221328, 127.780375)"><g><path d="M 7.3125 -87.09375 C 7.3125 -88.3125 7.921875 -88.921875 9.140625 -88.921875 L 21.5625 -88.921875 C 22.78125 -88.921875 23.390625 -88.3125 23.390625 -87.09375 L 23.390625 -1.828125 C 23.390625 -0.609375 22.78125 0 21.5625 0 L 9.140625 0 C 7.921875 0 7.3125 -0.609375 7.3125 -1.828125 Z M 7.3125 -87.09375 "/></g></g></g><g clip-path="url(#63014f70a1)"><path fill="#ffffff" d="M 19.621094 29.863281 L 136.730469 29.863281 L 136.730469 129.46875 L 19.621094 129.46875 Z M 19.621094 29.863281 " fill-opacity="1" fill-rule="nonzero"/></g><g fill="#0c0c0c" fill-opacity="1"><g transform="translate(27.520954, 122.597038)"><g><path d="M 72.09375 -81.796875 C 73.257812 -81.796875 73.84375 -81.207031 73.84375 -80.03125 L 73.84375 -1.75 C 73.84375 -0.582031 73.257812 0 72.09375 0 L 57.71875 0 C 56.78125 0 56.082031 -0.390625 55.625 -1.171875 L 24.1875 -56.671875 L 24.1875 -1.75 C 24.1875 -0.582031 23.601562 0 22.4375 0 L 9.9375 0 C 8.757812 0 8.171875 -0.582031 8.171875 -1.75 L 8.171875 -80.03125 C 8.171875 -81.207031 8.757812 -81.796875 9.9375 -81.796875 L 24.296875 -81.796875 C 25.234375 -81.796875 25.9375 -81.40625 26.40625 -80.625 L 57.84375 -25.125 L 57.84375 -80.03125 C 57.84375 -81.207031 58.425781 -81.796875 59.59375 -81.796875 Z M 72.09375 -81.796875 "/></g></g></g><g fill="#0c0c0c" fill-opacity="1"><g transform="translate(109.546577, 122.597038)"><g><path d="M 13.78125 1.515625 C 11.375 1.515625 9.351562 0.695312 7.71875 -0.9375 C 6.082031 -2.570312 5.265625 -4.597656 5.265625 -7.015625 C 5.265625 -9.347656 6.082031 -11.332031 7.71875 -12.96875 C 9.351562 -14.601562 11.375 -15.421875 13.78125 -15.421875 C 16.125 -15.421875 18.113281 -14.601562 19.75 -12.96875 C 21.382812 -11.332031 22.203125 -9.347656 22.203125 -7.015625 C 22.203125 -4.597656 21.382812 -2.570312 19.75 -0.9375 C 18.113281 0.695312 16.125 1.515625 13.78125 1.515625 Z M 13.78125 1.515625 "/></g></g></g></svg>